<svg width="213" height="70" viewBox="0 0 213 70" fill="none" xmlns="http://www.w3.org/2000/svg">
<path d="M48.2618 46.0886C47.7225 45.5803 46.8569 45.5888 46.3283 46.1075L46.2895 46.1457C45.7611 46.6645 45.77 47.4971 46.3093 48.0055C46.5754 48.2563 46.9209 48.3813 47.2661 48.3813C47.6206 48.3813 47.975 48.2494 48.2428 47.9866L48.2816 47.9485C48.8101 47.4296 48.8012 46.597 48.2618 46.0886Z" fill="#FAFAFA"/>
<path d="M62.9691 32.3006H59.3359V28.8057C59.3359 28.0793 58.7238 27.4905 57.9687 27.4905C57.2136 27.4905 56.6015 28.0793 56.6015 28.8057V32.3006H52.9684C52.2133 32.3006 51.6012 32.8894 51.6012 33.6158C51.6012 34.3421 52.2133 34.9309 52.9684 34.9309H56.6015V38.4258C56.6015 39.1522 57.2136 39.741 57.9687 39.741C58.7238 39.741 59.3359 39.1522 59.3359 38.4258V34.9309H62.9691C63.7242 34.9309 64.3363 34.3421 64.3363 33.6158C64.3363 32.8894 63.7242 32.3006 62.9691 32.3006Z" fill="#FAFAFA"/>
<path d="M62.4386 22.8711C61.1617 13.7925 53.2719 7 43.9071 7C39.1798 7 34.7576 8.69511 31.3086 11.8022C27.8595 8.69511 23.4373 7 18.7101 7C8.3933 7 0 15.2662 0 25.4267C0 27.4341 0.608809 29.6842 1.82 32.168H1.36719C0.61209 32.168 0 32.7568 0 33.4832C0 34.2095 0.61209 34.7983 1.36719 34.7983H3.27605C5.82955 38.9569 9.86768 43.6858 15.3739 48.9525C22.836 56.0899 30.4026 61.674 30.4782 61.7296C30.7232 61.9099 31.0159 62 31.3086 62C31.6013 62 31.8939 61.9099 32.139 61.7296C32.1967 61.6871 37.9837 57.4184 44.397 51.602C44.9464 51.1037 44.9719 50.2713 44.4538 49.7429C43.9359 49.2144 43.0706 49.1898 42.5212 49.6882C37.6302 54.124 33.1148 57.6412 31.3087 59.0152C29.1625 57.3818 23.1876 52.7192 17.2823 47.0686C12.5546 42.5446 8.93539 38.4219 6.48854 34.7983H18.7284C19.3383 34.7983 19.8744 34.4097 20.0426 33.8459L22.4313 25.8363L29.0463 46.2236C29.2246 46.7728 29.7533 47.147 30.3514 47.147C30.9496 47.147 31.4783 46.7728 31.6564 46.2236L35.3198 34.93H41.4235C42.1786 34.93 42.7906 34.3412 42.7906 33.6148C42.7906 32.8885 42.1786 32.2997 41.4235 32.2997H34.3142C33.7161 32.2997 33.1872 32.6737 33.0091 33.223L30.351 41.4171L23.6811 20.8604C23.5011 20.3058 22.9655 19.9292 22.3601 19.9372C21.7562 19.9439 21.2283 20.3311 21.0617 20.8896L17.698 32.1682H4.87047C3.45721 29.6015 2.73438 27.3393 2.73438 25.4267C2.73438 16.7165 9.90103 9.63031 18.7101 9.63031C23.1376 9.63031 27.255 11.3811 30.3037 14.5598C30.5627 14.8297 30.9269 14.9831 31.3086 14.9831C31.6903 14.9831 32.0547 14.8297 32.3135 14.5598C35.3622 11.3811 39.4796 9.63031 43.9071 9.63031C51.5233 9.63031 57.9984 14.9138 59.5375 22.1407C59.0238 22.0762 58.5003 22.0424 57.9686 22.0424C51.3346 22.0424 45.9374 27.2342 45.9374 33.6158C45.9374 39.9973 51.3346 45.1891 57.9686 45.1891C64.6026 45.1891 69.9999 39.9973 69.9999 33.6158C70 28.7528 66.8657 24.5814 62.4386 22.8711ZM57.9688 42.5588C52.8425 42.5588 48.6719 38.5469 48.6719 33.6158C48.6719 28.6846 52.8425 24.6727 57.9688 24.6727C63.095 24.6727 67.2656 28.6846 67.2656 33.6158C67.2656 38.5469 63.095 42.5588 57.9688 42.5588Z" fill="#FAFAFA"/>
<path d="M108.905 19.51C110.675 20.38 111.56 21.34 111.56 22.39C111.56 22.87 111.335 23.59 110.885 24.55L98.465 49.75C98.135 50.41 97.625 50.95 96.935 51.37C96.275 51.76 95.585 51.955 94.865 51.955H94.415C93.665 51.955 92.945 51.76 92.255 51.37C91.595 50.95 91.1 50.41 90.77 49.75L78.35 24.55C77.9 23.59 77.675 22.87 77.675 22.39C77.675 21.34 78.56 20.38 80.33 19.51C81.32 19 82.07 18.745 82.58 18.745C83.12 18.745 83.525 18.805 83.795 18.925C84.065 19.045 84.32 19.255 84.56 19.555C84.83 19.915 85.07 20.32 85.28 20.77C85.52 21.19 86.105 22.435 87.035 24.505C87.965 26.545 88.955 28.72 90.005 31.03C91.085 33.34 92.09 35.53 93.02 37.6C93.98 39.64 94.52 40.78 94.64 41.02L103.64 21.31C103.88 20.74 104.09 20.29 104.27 19.96C104.81 19.15 105.47 18.745 106.25 18.745C107.03 18.745 107.915 19 108.905 19.51ZM114.044 22.975C114.044 22.285 114.059 21.775 114.089 21.445C114.149 21.085 114.299 20.68 114.539 20.23C114.959 19.42 116.129 19.015 118.049 19.015C120.149 19.015 121.394 19.57 121.784 20.68C121.934 21.19 122.009 21.97 122.009 23.02V48.04C122.009 48.76 121.979 49.285 121.919 49.615C121.889 49.945 121.754 50.335 121.514 50.785C121.094 51.595 119.924 52 118.004 52C115.904 52 114.674 51.43 114.314 50.29C114.134 49.81 114.044 49.045 114.044 47.995V22.975ZM129.607 18.97L137.932 19.015C142.282 19.015 146.107 20.59 149.407 23.74C152.707 26.86 154.357 30.715 154.357 35.305C154.357 39.865 152.737 43.78 149.497 47.05C146.287 50.32 142.387 51.955 137.797 51.955H129.562C127.732 51.955 126.592 51.58 126.142 50.83C125.782 50.2 125.602 49.24 125.602 47.95V22.93C125.602 22.21 125.617 21.685 125.647 21.355C125.707 21.025 125.857 20.635 126.097 20.185C126.517 19.375 127.687 18.97 129.607 18.97ZM137.932 43.99C140.092 43.99 142.042 43.195 143.782 41.605C145.522 39.985 146.392 37.96 146.392 35.53C146.392 33.1 145.537 31.075 143.827 29.455C142.147 27.805 140.167 26.98 137.887 26.98H133.567V43.99H137.932ZM174.08 21.355L186.23 46.465C186.74 47.485 186.995 48.25 186.995 48.76C186.995 49.84 186.125 50.815 184.385 51.685C183.365 52.195 182.555 52.45 181.955 52.45C181.385 52.45 180.905 52.315 180.515 52.045C180.155 51.775 179.885 51.49 179.705 51.19C179.555 50.89 179.33 50.44 179.03 49.84L176.69 44.98H164.225L161.885 49.84C161.585 50.44 161.345 50.875 161.165 51.145C161.015 51.415 160.745 51.7 160.355 52C159.995 52.27 159.515 52.405 158.915 52.405C158.345 52.405 157.55 52.15 156.53 51.64C154.79 50.8 153.92 49.84 153.92 48.76C153.92 48.25 154.175 47.485 154.685 46.465L166.835 21.31C167.165 20.62 167.66 20.065 168.32 19.645C169.01 19.225 169.73 19.015 170.48 19.015C172.1 19.015 173.3 19.795 174.08 21.355ZM170.435 32.155L167.465 38.32H173.45L170.435 32.155ZM188.587 47.365C187.807 46.405 187.417 45.55 187.417 44.8C187.417 44.02 188.062 43 189.352 41.74C190.102 41.02 190.897 40.66 191.737 40.66C192.577 40.66 193.747 41.41 195.247 42.91C195.667 43.42 196.267 43.915 197.047 44.395C197.827 44.845 198.547 45.07 199.207 45.07C201.997 45.07 203.392 43.93 203.392 41.65C203.392 40.96 203.002 40.39 202.222 39.94C201.472 39.46 200.527 39.115 199.387 38.905C198.247 38.695 197.017 38.365 195.697 37.915C194.377 37.435 193.147 36.88 192.007 36.25C190.867 35.62 189.907 34.63 189.127 33.28C188.377 31.9 188.002 30.25 188.002 28.33C188.002 25.69 188.977 23.395 190.927 21.445C192.907 19.465 195.592 18.475 198.982 18.475C200.782 18.475 202.417 18.715 203.887 19.195C205.387 19.645 206.422 20.11 206.992 20.59L208.117 21.445C209.047 22.315 209.512 23.05 209.512 23.65C209.512 24.25 209.152 25.075 208.432 26.125C207.412 27.625 206.362 28.375 205.282 28.375C204.652 28.375 203.872 28.075 202.942 27.475C202.852 27.415 202.672 27.265 202.402 27.025C202.162 26.785 201.937 26.59 201.727 26.44C201.097 26.05 200.287 25.855 199.297 25.855C198.337 25.855 197.527 26.095 196.867 26.575C196.237 27.025 195.922 27.67 195.922 28.51C195.922 29.32 196.297 29.98 197.047 30.49C197.827 31 198.787 31.345 199.927 31.525C201.067 31.705 202.312 31.99 203.662 32.38C205.012 32.74 206.257 33.19 207.397 33.73C208.537 34.27 209.482 35.215 210.232 36.565C211.012 37.885 211.402 39.52 211.402 41.47C211.402 43.42 211.012 45.145 210.232 46.645C209.452 48.115 208.432 49.255 207.172 50.065C204.742 51.655 202.147 52.45 199.387 52.45C197.977 52.45 196.642 52.285 195.382 51.955C194.122 51.595 193.102 51.16 192.322 50.65C190.732 49.69 189.622 48.76 188.992 47.86L188.587 47.365Z" fill="white"/>
</svg>
