<?xml version="1.0"?>
<svg xmlns="http://www.w3.org/2000/svg" xmlns:xlink="http://www.w3.org/1999/xlink" xmlns:svgjs="http://svgjs.com/svgjs" version="1.1" width="512" height="512" x="0" y="0" viewBox="0 0 431.256 431.256" style="enable-background:new 0 0 512 512" xml:space="preserve" class=""><g>
<path xmlns="http://www.w3.org/2000/svg" d="M222.394,215.628c0,11.291-9.152,20.445-20.445,20.445c-11.291,0-20.445-9.154-20.445-20.445  c0-11.291,9.154-20.445,20.445-20.445C213.242,195.184,222.394,204.338,222.394,215.628z M336.642,96.188  c2.559,0,5.119-0.977,7.071-2.929l17.553-17.553c3.905-3.905,3.906-10.237,0-14.143c-3.906-3.903-10.237-3.904-14.142,0  l-17.553,17.553c-3.905,3.905-3.906,10.237,0,14.143C331.523,95.212,334.082,96.188,336.642,96.188z M60.187,93.26  c1.953,1.952,4.512,2.929,7.071,2.929s5.119-0.977,7.071-2.929c3.905-3.905,3.905-10.237,0-14.143L56.775,61.564  c-3.905-3.904-10.237-3.904-14.142,0c-3.905,3.905-3.905,10.237,0,14.143L60.187,93.26z M201.95,44.823c5.523,0,10-4.478,10-10V10  c0-5.522-4.477-10-10-10s-10,4.478-10,10v24.823C191.95,40.346,196.427,44.823,201.95,44.823z M60.187,337.997l-17.553,17.552  c-3.905,3.905-3.906,10.236,0,14.143c1.953,1.952,4.512,2.929,7.071,2.929c2.559,0,5.118-0.977,7.071-2.929l17.553-17.552  c3.905-3.905,3.906-10.236,0-14.142C70.424,334.093,64.092,334.093,60.187,337.997z M303.648,215.629  c0,56.076-45.622,101.698-101.699,101.698c-56.077,0-101.699-45.622-101.699-101.698c0-56.078,45.622-101.7,101.699-101.7  C258.026,113.929,303.648,159.551,303.648,215.629z M283.648,215.629c0-45.05-36.65-81.7-81.699-81.7  c-45.049,0-81.699,36.65-81.699,81.7c0,45.049,36.65,81.698,81.699,81.698C246.999,297.327,283.648,260.678,283.648,215.629z   M201.95,260.313c-24.639,0-44.684-20.045-44.684-44.684c0-5.522-4.477-10-10-10s-10,4.478-10,10  c0,35.667,29.017,64.684,64.684,64.684c5.523,0,10-4.478,10-10S207.473,260.313,201.95,260.313z M201.95,386.434  c-5.523,0-10,4.478-10,10v24.822c0,5.522,4.477,10,10,10s10-4.478,10-10v-24.822C211.95,390.911,207.473,386.434,201.95,386.434z   M428.534,287.902v40.219c0,5.522-4.477,10-10,10h-32.117v32.114c0,5.522-4.477,10-10,10h-40.215c-5.523,0-10-4.478-10-10v-32.114  h-32.117c-5.523,0-10-4.478-10-10v-40.219c0-5.522,4.477-10,10-10h32.117v-32.114c0-5.522,4.477-10,10-10h40.215  c5.523,0,10,4.478,10,10v32.114h32.117C424.057,277.902,428.534,282.38,428.534,287.902z M408.534,297.902h-32.117  c-5.523,0-10-4.478-10-10v-32.114h-20.215v32.114c0,5.522-4.477,10-10,10h-32.117v20.219h32.117c5.523,0,10,4.478,10,10v32.114  h20.215v-32.114c0-5.522,4.477-10,10-10h32.117V297.902z M257.045,337.444c-50.917,22.322-111.455,11.283-150.642-27.475  l-75.463-74.634c-5.299-5.24-8.217-12.238-8.217-19.706c0-7.469,2.917-14.468,8.216-19.708l75.471-74.64  c52.681-52.104,138.402-52.103,191.085,0.005l75.464,74.635c2.167,2.142,3.948,4.593,5.296,7.286  c1.512,3.021,2.449,6.274,2.786,9.67c0.545,5.495,5.44,9.511,10.938,8.964c5.496-0.545,9.509-5.442,8.964-10.938  c-0.579-5.834-2.195-11.435-4.803-16.646c-2.328-4.652-5.396-8.877-9.119-12.558l-75.462-74.634  c-60.439-59.773-158.777-59.778-219.213-0.005l-75.471,74.641c-9.126,9.026-14.152,21.076-14.152,33.929  c0,12.852,5.027,24.9,14.154,33.926l75.463,74.634c22.525,22.277,51.054,36.94,82.502,42.404c9.079,1.577,18.196,2.36,27.275,2.36  c21.623,0,43.005-4.446,62.958-13.194c5.058-2.218,7.361-8.115,5.144-13.174C268.001,337.529,262.102,335.224,257.045,337.444z" fill="#20c997" data-original="#000000" style=""/>
<g xmlns="http://www.w3.org/2000/svg">
</g>
<g xmlns="http://www.w3.org/2000/svg">
</g>
<g xmlns="http://www.w3.org/2000/svg">
</g>
<g xmlns="http://www.w3.org/2000/svg">
</g>
<g xmlns="http://www.w3.org/2000/svg">
</g>
<g xmlns="http://www.w3.org/2000/svg">
</g>
<g xmlns="http://www.w3.org/2000/svg">
</g>
<g xmlns="http://www.w3.org/2000/svg">
</g>
<g xmlns="http://www.w3.org/2000/svg">
</g>
<g xmlns="http://www.w3.org/2000/svg">
</g>
<g xmlns="http://www.w3.org/2000/svg">
</g>
<g xmlns="http://www.w3.org/2000/svg">
</g>
<g xmlns="http://www.w3.org/2000/svg">
</g>
<g xmlns="http://www.w3.org/2000/svg">
</g>
<g xmlns="http://www.w3.org/2000/svg">
</g>
</g></svg>
